<svg xmlns="http://www.w3.org/2000/svg" xmlns:xlink="http://www.w3.org/1999/xlink" viewBox="0 0 376.43 374.48"><defs><style>.cls-1{fill:url(#radial-gradient);}.cls-2{fill:url(#radial-gradient-2);}.cls-3{fill:url(#radial-gradient-3);}.cls-4{fill:url(#radial-gradient-4);}.cls-5{fill:url(#radial-gradient-5);}.cls-6{fill:url(#radial-gradient-6);}.cls-7{fill:url(#radial-gradient-7);}.cls-8{fill:url(#radial-gradient-8);}.cls-9{isolation:isolate;}.cls-10{fill:#b1b1b1;}.cls-10,.cls-11{fill-rule:evenodd;}.cls-11{fill:#7c7c7c;}.cls-12{mix-blend-mode:screen;}.cls-13{fill:url(#radial-gradient-9);}.cls-14{mask:url(#mask);}.cls-15{fill:#ff0505;}.cls-16{mask:url(#mask-2);}.cls-17{mask:url(#mask-3);}.cls-18{fill:#ff3305;}.cls-19{mask:url(#mask-4);}.cls-20{mask:url(#mask-5);}.cls-21{mask:url(#mask-6);}.cls-22{mask:url(#mask-7);}.cls-23{fill:url(#linear-gradient);}.cls-24{fill:url(#linear-gradient-2);}.cls-25{fill:url(#linear-gradient-3);}.cls-26,.cls-27,.cls-28{opacity:0.54;}.cls-26{fill:url(#linear-gradient-4);}.cls-27{fill:url(#linear-gradient-5);}.cls-28{fill:url(#linear-gradient-6);}.cls-29{fill:url(#linear-gradient-7);}.cls-30{fill:url(#linear-gradient-8);}.cls-31{fill:url(#linear-gradient-9);}.cls-32{fill:url(#linear-gradient-10);}.cls-33{fill:url(#linear-gradient-11);}.cls-34{fill:url(#linear-gradient-12);}.cls-35{fill:url(#linear-gradient-13);}.cls-36{fill:url(#linear-gradient-14);}.cls-37{fill:url(#linear-gradient-15);}.cls-38{mask:url(#mask-8);}.cls-39{fill:#fff200;}</style><radialGradient id="radial-gradient" cx="366.28" cy="6757.97" r="57.26" gradientTransform="matrix(-0.7, 0, 0, 0.55, 433.18, -3582.72)" gradientUnits="userSpaceOnUse"><stop offset="0" stop-color="#faffff"/><stop offset="0.23" stop-color="#bcbfbf"/><stop offset="0.61" stop-color="#585959"/><stop offset="0.87" stop-color="#191919"/><stop offset="0.99"/></radialGradient><radialGradient id="radial-gradient-2" cx="420.13" cy="6750.23" r="57.26" xlink:href="#radial-gradient"/><radialGradient id="radial-gradient-3" cx="461.01" cy="6984.72" r="57.26" gradientTransform="matrix(-0.54, 0, 0, 0.69, 314.74, -4540.39)" xlink:href="#radial-gradient"/><radialGradient id="radial-gradient-4" cx="50.87" cy="6944.52" r="57.26" gradientTransform="matrix(-0.54, 0, 0, 0.69, 314.74, -4540.39)" xlink:href="#radial-gradient"/><radialGradient id="radial-gradient-5" cx="314.07" cy="6753.22" r="57.26" xlink:href="#radial-gradient"/><radialGradient id="radial-gradient-6" cx="494.1" cy="7055.14" r="57.27" gradientTransform="matrix(-0.85, 0.54, 0.3, 0.47, -1585.76, -3386.51)" xlink:href="#radial-gradient"/><radialGradient id="radial-gradient-7" cx="386.58" cy="6724.93" r="57.26" gradientTransform="matrix(-0.8, -0.33, -0.21, 0.51, 1976.45, -3140.42)" xlink:href="#radial-gradient"/><radialGradient id="radial-gradient-8" cx="977.22" cy="7825.06" r="93.33" gradientTransform="matrix(-1.44, 0, 0, 0.16, 1597.1, -929.23)" xlink:href="#radial-gradient"/><radialGradient id="radial-gradient-9" cx="-1070.41" cy="-1552.61" r="162.21" gradientTransform="matrix(-1.16, -0.09, 0.09, -1.15, -909.42, -1696.65)" gradientUnits="userSpaceOnUse"><stop offset="0.29" stop-color="#7d080f"/><stop offset="0.52" stop-color="#53050a"/><stop offset="0.99"/></radialGradient><mask id="mask" x="134.21" y="128.25" width="84.94" height="69.94" maskUnits="userSpaceOnUse"><path class="cls-1" d="M134.21,163.22c0,19.32,19,35,42.47,35s42.47-15.66,42.47-35-19-35-42.47-35S134.21,143.91,134.21,163.22Z"/></mask><mask id="mask-2" x="96.5" y="123.96" width="84.94" height="69.94" maskUnits="userSpaceOnUse"><ellipse class="cls-2" cx="138.97" cy="158.93" rx="42.47" ry="34.97"/></mask><mask id="mask-3" x="34.45" y="212.68" width="65.17" height="86.66" maskUnits="userSpaceOnUse"><path class="cls-3" d="M34.45,256c0,23.93,14.59,43.33,32.58,43.33S99.62,279.94,99.62,256,85,212.68,67,212.68,34.45,232.08,34.45,256Z"/></mask><mask id="mask-4" x="254.82" y="185.08" width="65.17" height="86.66" maskUnits="userSpaceOnUse"><path class="cls-4" d="M254.82,228.41c0,23.93,14.59,43.33,32.58,43.33S320,252.34,320,228.41s-14.59-43.33-32.59-43.33S254.82,204.48,254.82,228.41Z"/></mask><mask id="mask-5" x="170.77" y="125.62" width="84.94" height="69.94" maskUnits="userSpaceOnUse"><path class="cls-5" d="M170.77,160.59c0,19.31,19,35,42.47,35s42.47-15.66,42.47-35-19-35-42.47-35S170.77,141.27,170.77,160.59Z"/></mask><mask id="mask-6" x="34.45" y="137.47" width="109.65" height="88.09" maskUnits="userSpaceOnUse"><path class="cls-6" d="M37.76,214.19c10.35,16.31,41.8,14.91,70.25-3.14s43.12-45.9,32.78-62.21S99,133.94,70.54,152,27.42,197.88,37.76,214.19Z"/></mask><mask id="mask-7" x="206.19" y="145.01" width="100.04" height="75.84" maskUnits="userSpaceOnUse"><path class="cls-7" d="M208,163.18c-7.32,17.88,8.34,41.21,35,52.11s54.15,5.26,61.47-12.61-8.33-41.21-35-52.11S215.31,145.31,208,163.18Z"/></mask><linearGradient id="linear-gradient" x1="148.02" y1="253.75" x2="246.01" y2="174.76" gradientUnits="userSpaceOnUse"><stop offset="0" stop-color="#7d1500"/><stop offset="1" stop-color="#f50"/></linearGradient><linearGradient id="linear-gradient-2" x1="214.32" y1="194.75" x2="150.18" y2="314.12" gradientUnits="userSpaceOnUse"><stop offset="0" stop-color="#fff200"/><stop offset="1" stop-color="#f50"/></linearGradient><linearGradient id="linear-gradient-3" x1="114.04" y1="271.15" x2="267.39" y2="271.15" gradientUnits="userSpaceOnUse"><stop offset="0" stop-color="#ad2000"/><stop offset="1" stop-color="#f50"/></linearGradient><linearGradient id="linear-gradient-4" x1="167.62" y1="305.1" x2="144.12" y2="260.57" gradientUnits="userSpaceOnUse"><stop offset="0" stop-color="#c92600"/><stop offset="1" stop-color="#ffbf00"/></linearGradient><linearGradient id="linear-gradient-5" x1="-137.7" y1="303.63" x2="-162.2" y2="257.21" gradientTransform="matrix(-1, 0, 0, 1, 79.46, 0)" xlink:href="#linear-gradient-4"/><linearGradient id="linear-gradient-6" x1="-149.16" y1="306.74" x2="-164.65" y2="277.39" gradientTransform="matrix(-1, 0, 0, 1, 79.46, 0)" xlink:href="#linear-gradient-4"/><linearGradient id="linear-gradient-7" x1="255.73" y1="206.8" x2="243.26" y2="218.48" gradientUnits="userSpaceOnUse"><stop offset="0" stop-color="#fff200"/><stop offset="1" stop-color="#fff"/></linearGradient><linearGradient id="linear-gradient-8" x1="194.61" y1="183.04" x2="186.23" y2="205.19" xlink:href="#linear-gradient-7"/><linearGradient id="linear-gradient-9" x1="175.11" y1="315.24" x2="204.98" y2="272.72" xlink:href="#linear-gradient-7"/><linearGradient id="linear-gradient-10" x1="110.89" y1="204.83" x2="97.26" y2="240.84" xlink:href="#linear-gradient-7"/><linearGradient id="linear-gradient-11" x1="289.57" y1="231.48" x2="283.18" y2="248.38" xlink:href="#linear-gradient-7"/><linearGradient id="linear-gradient-12" x1="160.22" y1="198.44" x2="157.56" y2="205.45" xlink:href="#linear-gradient-7"/><linearGradient id="linear-gradient-13" x1="219.53" y1="182.47" x2="222.5" y2="154.76" xlink:href="#linear-gradient-3"/><linearGradient id="linear-gradient-14" x1="113.19" y1="212.45" x2="91.15" y2="170.66" xlink:href="#linear-gradient-3"/><linearGradient id="linear-gradient-15" x1="283.67" y1="229.39" x2="291.12" y2="159.85" xlink:href="#linear-gradient-3"/><mask id="mask-8" x="50.44" y="293.98" width="284.19" height="32.58" maskUnits="userSpaceOnUse"><ellipse class="cls-8" cx="192.54" cy="310.26" rx="142.1" ry="16.29"/></mask></defs><g class="cls-9"><g id="Layer_2" data-name="Layer 2"><g id="Layer_1-2" data-name="Layer 1"><path class="cls-10" d="M273.43,64.49h22.23v7.42H273.43v7.42h29.65v7.42H258.59V49.68h44.49V57.1H273.43Zm-51.9,0H229V57.1h7.42V49.68h14.8V86.75h-14.8V71.91H229v7.42h-7.42V71.91h-7.42V86.75H199.3V49.68h14.81V57.1h7.42ZM140,57.1H110.34V79.33h14.84V71.91h-7.42V64.49H140V86.75H102.92V79.33H95.5V57.1h7.42V49.68H140Zm14.84-7.42h29.64V57.1h7.42V86.75H177V71.91h-14.8V86.75H147.4V57.1h7.42Zm7.42,14.81H177V57.1h-14.8Z"/><path class="cls-11" d="M106.61,94.31h29.65v7.41h7.42V124h-7.42v7.41H106.61V124H99.2V101.72h7.41Zm7.41,7.41V124h14.83V101.72Zm37.07-7.41h14.83v14.82h14.82V94.31h14.83v14.82h-7.42V124h-7.41v7.41H165.92V124H158.5V109.13h-7.41Zm66.72,14.82h22.24v7.42H217.81V124h29.65v7.41H203V94.31h44.48v7.41H217.81Zm51.89,7.42h14.82V101.72H269.7Zm29.65-14.83v14.83h-7.41V124h7.41v7.41H277.11V124H269.7v7.41H254.87V94.31h37.07v7.41Z"/><g class="cls-12"><path class="cls-13" d="M.58,172.47C8.68,69.43,99.26-7.56,202.92.59S384,98.91,375.84,202,277.13,382,173.57,373.88-7.53,275.58.58,172.47Z"/></g><g class="cls-14"><path class="cls-15" d="M134.21,163.22c0,19.32,19,35,42.47,35s42.47-15.66,42.47-35-19-35-42.47-35S134.21,143.91,134.21,163.22Z"/></g><g class="cls-16"><ellipse class="cls-15" cx="138.97" cy="158.93" rx="42.47" ry="34.97"/></g><g class="cls-17"><path class="cls-18" d="M34.45,256c0,23.93,14.59,43.33,32.58,43.33S99.62,279.94,99.62,256,85,212.68,67,212.68,34.45,232.08,34.45,256Z"/></g><g class="cls-19"><path class="cls-15" d="M254.82,228.41c0,23.93,14.59,43.33,32.58,43.33S320,252.34,320,228.41s-14.59-43.33-32.59-43.33S254.82,204.48,254.82,228.41Z"/></g><g class="cls-20"><path class="cls-15" d="M170.77,160.59c0,19.31,19,35,42.47,35s42.47-15.66,42.47-35-19-35-42.47-35S170.77,141.27,170.77,160.59Z"/></g><g class="cls-21"><path class="cls-18" d="M37.76,214.19c10.35,16.31,41.8,14.91,70.25-3.14s43.12-45.9,32.78-62.21S99,133.94,70.54,152,27.42,197.88,37.76,214.19Z"/></g><g class="cls-22"><path class="cls-15" d="M208,163.18c-7.32,17.88,8.34,41.21,35,52.11s54.15,5.26,61.47-12.61-8.33-41.21-35-52.11S215.31,145.31,208,163.18Z"/></g><path class="cls-23" d="M217.08,169.78C225.39,160.34,269.45,158,280,194c13.46-7.57,21,16.22,11.87,21.2,21.38,1.75,27.07,53.61-15.11,66.51-83.87-27.15-167,12.33-168.2,11.59S84.83,306,68,286.25,59,251.17,63.78,246.93C45.64,199.14,69,169.33,98.3,168a22.68,22.68,0,0,1,35.63-15c11.88-6.15,24.15,2.77,22.17,14.34C170.75,139.36,205.2,140.81,217.08,169.78Z"/><path class="cls-24" d="M155.11,297.76c-13.66,2-39.19,11.22-51.66-1s-7.13-32.81,0-36c-17.23-10.69-24.13-29.23-16-45.5S114,212.75,114,212.75c-3.17-11.09,4.85-23.6,13.2-17,7.39-24.52,33-25.91,45.49-27.58S222.45,178.9,208,215.21c8.28-14.29,24.55-18.55,27.71-2.46,12.28-23.45,50.24-5.69,39.66,20.84,10.58-5.7,31.74,2.77,21.16,23.92s-34.78,39.59-58.09,39.21S155.11,297.76,155.11,297.76Z"/><path class="cls-25" d="M159.05,311.9c.59-2.75-45-66.81-45-66.81s21.51,6.23,30.06-.85c10.58-8.75,12.24-13.85,12.24-13.85,5.24,11.14,13.55,24.33,26.52,27.89,5.72,1.58,16.2-6.74,15.79-17.31.59,19.28,7.78,16.83,10.45,17.31s16.38-12.68,18.84-24.56c.09,4.68.82,11.71,6.09,13.57s10.57-2.16,11.13-5.19c-1,6.83-4.93,17.67,2.23,21.82s20-3.18,20-3.18L233.94,311Z"/><path class="cls-26" d="M176.68,311.9s-16.11-41.36-39.58-52.58c17.08,16.34,31.13,48.84,30,52.58C170.45,311.22,176.68,311.9,176.68,311.9Z"/><path class="cls-27" d="M211.5,312.71s12.62-47.36,31-60.21c-13.38,18.71-24.39,55.92-23.53,60.21C216.38,311.93,211.5,312.71,211.5,312.71Z"/><path class="cls-28" d="M223.8,311.83s9.6-28.29,23.59-36c-10.17,11.18-18.55,33.41-17.89,36A21.58,21.58,0,0,0,223.8,311.83Z"/><path class="cls-29" d="M264.67,210.11c-7.83-10.71-33.41-8.33-22.83,16.55C241.5,214.45,249.54,201.61,264.67,210.11Z"/><path class="cls-30" d="M174.32,177.3c6.54.29,22,4.47,27,17.67s.3,19.21-2.37,22c5.94-2,14.85-12.41,7.13-29.31S176.7,176.11,174.32,177.3Z"/><path class="cls-31" d="M170.92,311.9l-11.87-28.64s12.55,10.58,18.45,10.58-5.09-26.86-10.58-42.3c17.07,36.82,19.44,46,24.79,47.65s6.94-42.39,6.94-42.39c3.16,22.06,13.63,23.08,21.16,0-4.35,19.68-11.47,28.47-8.5,32.75s19-11.09,24.94-27.22c-5.86,21.28-14.25,30.46-11.88,36.86s20.79-15.93,20.79-15.93c-8.32,17-14.77,28.64-14.77,28.64Z"/><path class="cls-32" d="M95.66,251.54c-6.24-19.09-3.27-30.21,0-33.71s16-2.9,21.08,2.15c-.3-9.51,5.05-19.94,12.77-15.91-10.69-10.82-16.1-.14-15.47,11.3C96.85,198.35,72.2,218.08,95.66,251.54Z"/><path class="cls-33" d="M271.05,258.28c-1.78-21.48,24.79-28.74,22.17-1.09C306.48,232.53,264.67,221.16,271.05,258.28Z"/><path class="cls-34" d="M144.1,196.26c3.82.26,17.48-.34,17.78,13,5.64-7.72,12.44-3.38,12.44-3.38-2-7.31-10.07-3.14-10.07-3.14C161.88,194.44,152.46,193,144.1,196.26Z"/><path class="cls-35" d="M236.92,173.32c-3.8-.43-19.49-3.48-22.19,9.61-1-18-9.28-22.34-9.28-22.34,12,5.34,10.48,15.51,10.48,15.51C219.77,168.33,229.29,168.64,236.92,173.32Z"/><path class="cls-36" d="M67.75,247.29c-.8-17.42.39-64.93,32.46-69.48,1-4.75,9.92-29.89,30.69-17.81a19.71,19.71,0,0,1,17.61-1.59c-5.74-5.94-15.44-2.34-17.22-1.66C119,150.3,104,154.06,97.84,170.88,75.94,175.54,54.48,201.17,67.75,247.29Z"/><path class="cls-37" d="M267.39,176.52c4.06,5.55,7.47,18.32,8.06,23.86,3.77-3.47,12.75-6.24,14.93,2.67s-2.45,13.26-4.14,14.25c4.36.1,16.78,6,18.86,16.83-3-15.14-13.59-18.15-14.65-18.24,3.7-2.7,5.42-10.95,2.87-16.11-3.66-7.42-9.5-6.82-14.45-4.55C274.82,183.48,267.79,176.72,267.39,176.52Z"/><g class="cls-38"><ellipse class="cls-39" cx="192.54" cy="310.26" rx="142.1" ry="16.29"/></g></g></g></g></svg>